<svg width="89" height="89" viewBox="0 0 89 89" fill="none" xmlns="http://www.w3.org/2000/svg">
<g clip-path="url(#clip0_102_744)">
<path d="M75.2977 66.7188L59.0313 68.4269L50.1551 82.1574L37.455 71.8699L21.4629 75.2976L19.7548 59.0313L6.02422 50.1551L16.3118 37.455L12.8841 21.4629L29.1504 19.7547L38.0266 6.02418L50.7267 16.3118L66.7188 12.884L68.427 29.1504L82.1575 38.0266L71.8699 50.7267L75.2977 66.7188Z" fill="#FFE006"/>
<path d="M34.3882 36.5454V51.0908H32.6837L24.7575 39.6704H24.6155V51.0908H22.8541V36.5454H24.5587L32.5132 47.9942H32.6553V36.5454H34.3882ZM37.9127 51.0908V36.5454H46.6911V38.1079H39.6741V43.0226H46.2366V44.5851H39.6741V49.5283H46.8048V51.0908H37.9127ZM52.5079 51.0908L48.5306 36.5454H50.3204L53.3602 48.392H53.5022L56.5988 36.5454H58.5874L61.684 48.392H61.8261L64.8659 36.5454H66.6556L62.6784 51.0908H60.8602L57.6499 39.4999H57.5363L54.3261 51.0908H52.5079Z" fill="black"/>
</g>
<defs>
<clipPath id="clip0_102_744">
<rect width="72" height="72" fill="white" transform="translate(18.635) rotate(15)"/>
</clipPath>
</defs>
</svg>
