<svg width="227" height="82" viewBox="0 0 227 82" fill="none" xmlns="http://www.w3.org/2000/svg">
<path d="M77.9035 57.6701C77.9998 55.7658 76.2485 54.4141 73.7749 54.4141H69.6642L69.6221 54.8286C70.2119 54.8466 70.8137 54.9368 70.7897 55.4654C70.7776 55.7838 70.6332 56.2824 70.555 56.5587L67.2749 66.8253C66.9619 67.8165 66.5406 67.7924 65.6378 67.7924L65.6258 68.3211H72.1378C74.792 68.3211 76.6035 66.579 76.6035 64.6086C76.6035 62.8184 75.2133 61.659 74.461 61.4187L74.4249 61.3706C76.2364 61.1664 77.8073 59.6765 77.9035 57.6701ZM74.7559 64.0379C74.7559 66.4468 73.5762 67.7564 70.8017 67.7564L68.9059 67.6302L70.8137 61.6409L72.1739 61.701C73.0225 61.7551 74.7559 62.0074 74.7559 64.0379ZM72.1619 61.1784C71.9452 61.1784 71.3915 61.2024 71.0184 61.1844L72.6434 55.8379C72.8781 55.0809 73.1971 54.8527 73.8832 54.8527C75.4781 54.8527 76.0498 55.6997 76.0498 57.2316C76.0498 59.5143 75.3457 61.1784 72.1619 61.1784ZM79.7211 64.5545C80.6059 64.116 81.4364 63.7315 82.5378 63.0527C83.8558 62.2357 84.5781 61.3406 84.5781 60.4455C84.5781 59.8087 83.9401 59.214 83.0554 59.214C80.5396 59.214 77.5846 64.2902 77.5846 66.5309C77.5846 67.6423 78.2887 68.4713 79.366 68.4713C80.642 68.4713 81.8517 67.2818 82.8387 65.768L82.5258 65.5998C81.4424 67.1316 80.8526 67.7324 79.7151 67.7324C79.029 67.7324 79.2096 67.3179 79.2096 66.8012C79.2096 66.2846 79.4503 65.2874 79.7211 64.5545ZM82.9711 59.7847C83.3744 59.7246 83.5309 60.025 83.4827 60.3914C83.2961 61.701 81.8878 62.9986 80.016 63.8216C81.292 60.86 82.0744 59.9168 82.9711 59.7847ZM87.6776 65.4376C86.9313 66.4528 86.2512 67.1076 85.9382 67.1076C85.7818 67.1076 85.7216 67.1917 85.7216 66.9514C85.7216 66.7532 85.7457 66.5189 86.2151 65.3475L90.8253 54.1738L88.0628 54.294L88.0026 54.7325C88.5924 54.7325 88.7609 54.8226 88.9234 54.9848C89.0077 55.0689 88.9054 55.4894 88.7489 55.8859L84.4216 66.2305C84.1267 66.9634 84.0003 67.5882 84.0003 67.8225C84.0003 68.0628 84.1688 68.4833 84.4818 68.4833C85.1498 68.4833 86.7267 67.408 87.9424 65.7019L87.6776 65.4376ZM96.9762 60.4875C97.1929 60.4875 97.5419 60.2112 97.5419 59.9769C97.5419 59.7186 97.3012 59.3702 96.7896 59.3702C96.26 59.3702 95.622 59.6105 95.1706 60.031C94.8757 59.5744 94.3762 59.3341 93.5878 59.3341C91.0901 59.3341 89.754 61.3706 89.754 62.9625C89.754 64.152 90.0188 65.0531 90.5725 65.4075C89.6457 65.9422 89.1281 66.3266 89.1281 67.0655C89.1281 67.6603 89.3206 68.0447 89.9165 68.243V68.279C88.2674 68.7596 87.2443 69.4084 87.2443 70.4236C87.2443 71.517 88.9174 72.5082 91.2165 72.5082C93.323 72.5082 95.4956 71.4209 95.4956 69.907C95.4956 69.072 94.8216 68.3992 94.0933 68.0387C93.1123 67.5582 91.9447 67.3839 90.9998 67.0115C90.2716 66.7111 90.2234 66.7111 90.2234 66.3507C90.2234 65.9362 90.5183 65.822 90.9938 65.5998C91.1503 65.6598 91.5114 65.7079 91.8063 65.7079C94.0692 65.7079 95.628 62.9806 95.628 61.2685C95.628 60.9501 95.6581 60.5596 95.5739 60.3313C95.7484 60.1751 95.7364 60.067 95.9591 60.043C96.1938 60.0129 96.2058 60.1331 96.4044 60.2472C96.5248 60.3494 96.7415 60.4875 96.9762 60.4875ZM90.5123 68.4773C91.06 68.6395 92.4021 68.9278 93.1063 69.2102C94.0091 69.5706 94.5628 69.7448 94.4845 70.4357C94.3822 71.3247 93.1906 71.9856 91.2586 71.9856C89.9827 71.9856 88.448 71.7453 88.448 70.4116C88.448 69.3363 89.0558 68.9338 90.5123 68.4773ZM94.5206 60.7278C94.4544 61.9113 93.3169 65.1492 91.6859 65.1492C90.9577 65.1492 90.8734 64.5845 90.8734 63.7495C90.8734 62.3979 91.9507 59.6946 93.66 59.6946C94.328 59.6946 94.5507 60.073 94.5206 60.7278ZM100.756 56.1923C101.207 56.1923 101.677 55.6156 101.677 55.159C101.677 54.7025 101.285 54.2039 100.635 54.2339C100.184 54.2519 99.7507 54.6544 99.7507 55.0869C99.7567 55.9099 100.118 56.1923 100.756 56.1923ZM100.864 59.9529C100.864 59.6525 100.479 59.3461 100.166 59.3461C99.1428 59.3461 97.8067 60.6257 96.8438 61.9713L97.0845 62.2357C97.4757 61.719 98.553 60.4094 99.0044 60.4094C99.1007 60.4094 99.1609 60.4875 99.1609 60.6677C99.1609 61.0642 98.6614 62.0675 97.9692 63.5753C96.8498 66.0323 96.2961 66.6811 96.2961 67.8405C96.2961 68.2971 96.5188 68.5073 96.8137 68.5073C98.0535 68.5073 99.4077 66.8253 100.118 65.8941L99.853 65.6779C98.872 66.9514 98.4808 67.1857 98.0716 67.3058C97.9211 67.3539 97.8368 67.1677 97.8368 67.0055C97.8368 66.651 98.4628 65.5697 99.0345 64.3803C100.076 62.1395 100.864 60.5476 100.864 59.9529ZM107.141 67.1977C107.027 67.1977 107.003 67.1016 107.003 66.9814C107.003 66.7412 107.063 66.597 107.515 65.5036L110.024 59.5384L108.592 59.5804C108.237 60.5356 107.623 61.701 107.015 62.7703C105.583 65.2573 103.946 67.408 103.043 67.408C102.868 67.408 102.778 67.3119 102.778 67.1136C102.778 66.5549 103.073 65.9602 104.012 63.9117C105.095 61.5628 105.667 60.3974 105.667 59.9228C105.667 59.5864 105.294 59.232 104.921 59.232C104.078 59.232 102.772 60.5476 101.809 61.7431L102.038 61.9113C102.844 60.9201 103.609 60.3313 103.922 60.3313C104.078 60.3313 104.102 60.4034 104.102 60.5416C104.102 60.7819 103.578 61.7431 102.694 63.6714C101.851 65.4976 101.183 66.7652 101.183 67.3659C101.183 67.9606 101.586 68.6635 102.11 68.5674C103.627 68.285 104.511 67.8465 106.335 64.8008L106.281 65.0471C105.516 67.0055 105.498 67.3659 105.498 67.8045C105.498 68.2009 105.709 68.5193 106.263 68.5193C106.792 68.5193 108.056 67.5041 109.332 65.5157L109.079 65.2453C108.062 66.7472 107.533 67.1977 107.141 67.1977ZM122.82 60.2773C122.82 59.6825 122.453 59.3221 121.959 59.3221C120.31 59.3221 119.353 60.5416 117.975 62.512L117.903 62.524C118.336 61.5508 118.468 60.9921 118.42 60.0971C118.396 59.6645 118.107 59.3221 117.553 59.3221C116.121 59.3221 114.827 60.7098 113.623 62.482L113.587 62.4579C114.803 59.6825 114.237 59.3161 113.563 59.3161C112.678 59.3161 111.607 60.3974 110.488 62.1455L110.71 62.4099C111.613 61.0762 112.305 60.2352 112.697 60.2352C112.895 60.2352 112.865 60.5897 112.823 60.7398C112.709 61.1603 112.257 62.1936 111.451 64.1039C110.765 65.7319 110.048 67.5221 109.717 68.261L111.035 68.249C111.348 67.396 112.101 65.8881 112.727 64.7527C114.123 62.2657 115.718 60.3133 116.584 60.3133C116.879 60.3133 116.903 60.4995 116.903 60.6978C116.903 61.3346 116.434 62.476 115.67 64.2661L113.984 68.279L115.303 68.285C115.778 67.2097 116.452 65.8941 117.024 64.8849C118.577 62.1395 120.057 60.3914 121.002 60.3914C121.279 60.3914 121.315 60.5476 121.315 60.8299C121.315 61.4067 120.936 62.0014 119.853 64.2301C118.775 66.4768 118.39 67.2518 118.39 67.7684C118.39 68.1889 118.859 68.5914 119.094 68.5914C119.84 68.5914 121.333 67.3479 122.278 66.0143L121.911 65.7439C121.207 66.7171 120.623 67.1076 120.31 67.1076C120.214 67.1076 120.129 67.0595 120.129 66.8853C120.129 66.4648 120.268 66.2185 121.327 64.0499C122.067 62.542 122.82 61.2925 122.82 60.2773ZM131.589 67.408C131.589 67.1917 131.649 66.9034 131.727 66.7051L135.844 54.8346L135.717 54.4862C134.496 55.2792 132.925 56.0541 131.589 56.6308L131.914 56.9552L133.593 56.4746L130.12 66.8012C129.747 67.8946 129.446 67.8585 128.345 67.8825V68.261H132.871L132.822 67.8645C131.721 67.8465 131.589 67.7504 131.589 67.408ZM142.38 54.7145C139.292 54.7145 136.951 58.6373 136.951 60.6257C136.951 62.3318 137.553 63.323 139.003 63.5873C140.057 63.7795 140.827 63.5393 141.092 63.2149L141.062 63.2569C139.419 65.7199 137.878 66.627 135.585 68.0387L135.796 68.4052C141.026 67.0355 144.637 62.2837 144.637 58.0245C144.637 56.1442 144.029 54.7145 142.38 54.7145ZM139.846 63.1007C139.04 63.1007 138.486 62.53 138.486 61.0943C138.486 58.409 140.845 55.2011 142.416 55.2011C143.24 55.2011 143.415 55.6276 143.439 56.8711C143.463 58.6373 141.977 63.1007 139.846 63.1007ZM150.691 54.7145C148.549 54.7145 146.954 56.1142 145.973 57.6461L146.274 57.9044C147.219 56.3725 148.627 55.5014 149.921 55.5014C151.022 55.5014 151.546 55.946 151.546 57.0814C151.546 58.1927 151.185 59.0277 150.065 60.1812C148.687 61.6169 147.068 62.8003 145.75 64.2902C144.474 65.7379 143.812 66.8913 143.379 68.3031L149.855 68.3151L151.143 65.6538L150.673 65.5577C150.144 66.7712 149.891 66.6871 148.735 66.6871L144.757 66.6931C145.01 65.9542 145.377 65.3775 146.226 64.4464C147.839 62.6382 149.795 61.8872 151.389 60.4154C152.449 59.4423 153.207 58.1867 153.207 56.9732C153.207 55.4294 152.106 54.7145 150.691 54.7145ZM158.576 59.6045C157.751 59.6045 157.197 59.7366 156.698 60.2112L156.728 60.1091C158.004 57.7242 160.128 56.2283 162.409 55.1951L162.054 54.8707C156.608 56.4987 153.099 60.7398 153.099 65.1913C153.099 66.7592 153.899 68.4592 155.675 68.4592C159.039 68.4592 160.959 63.9417 160.959 62.3498C160.953 60.3794 159.906 59.6045 158.576 59.6045ZM155.639 67.9606C154.856 68.0267 154.381 67.6182 154.381 66.2846C154.381 64.6146 155.476 60.1451 157.968 60.1451C159.069 60.1451 159.244 60.872 159.244 61.8452C159.25 63.7315 157.601 67.7984 155.639 67.9606Z" fill="#F0D891"/>
<path fill-rule="evenodd" clip-rule="evenodd" d="M70.0012 11.4321C79.7271 11.4321 87.3706 17.5596 87.3706 27.6159C87.3706 37.2877 80.1665 45.2774 69.7424 45.2774C57.898 45.2774 52.674 36.0742 52.674 28.3127C52.674 21.3202 58.0665 11.4321 70.0012 11.4321ZM70.91 43.343C74.804 43.343 82.4174 40.88 82.4234 28.8354C82.4294 19.524 76.5313 13.1983 69.6943 13.1983C62.4781 13.1983 57.4948 17.9861 57.4888 27.0992C57.4767 36.4647 63.1221 43.343 70.91 43.343Z" fill="#F0D891"/>
<path fill-rule="evenodd" clip-rule="evenodd" d="M98.2401 41.4985C98.4567 39.6783 98.4567 36.2722 98.4567 32.1331V24.5398C98.4567 17.7996 98.4928 16.5922 98.3725 15.2105L98.3544 12.1467C98.872 12.1467 103.94 12.0206 106.534 12.0206C110.819 12.0206 119.094 11.6301 124.234 16.9406C126.401 19.1873 128.435 22.7677 128.435 27.91C128.435 33.3466 126.19 37.5337 123.771 40.0808C121.911 42.0272 117.65 45.0429 110.295 45.0429C106.582 45.0429 98.5831 44.5262 98.1498 44.5262L98.2401 41.4985ZM102.928 29.2015C102.928 33.7731 102.977 37.75 103.019 38.5609C103.061 39.6423 103.314 41.078 103.663 41.5586C104.228 42.3816 105.324 43.2827 110.428 43.2827C114.454 43.2827 117.656 42.1113 120.202 39.5642C122.453 37.3655 123.668 33.2204 123.668 29.2496C123.668 23.7649 121.291 20.2266 119.521 18.3703C115.447 14.0931 111.035 13.7807 105.89 13.7807C105.029 13.7807 103.843 13.9129 103.494 14.0811C103.109 14.2553 102.983 14.4836 102.983 14.9401C102.934 16.4119 102.934 20.527 102.934 23.849V29.2015H102.928Z" fill="#F0D891"/>
<path fill-rule="evenodd" clip-rule="evenodd" d="M139.316 41.4864C139.533 39.6662 139.533 36.2601 139.533 32.115V24.5217C139.533 17.7815 139.521 16.5801 139.443 15.1924L139.178 12.0025C139.786 12.0025 140.875 12.1286 141.772 12.1346C142.416 12.1406 143.644 11.9664 144.161 12.0025L144.089 15.1924C144.005 16.574 144.005 17.7815 144.005 24.5217V32.115C144.005 36.2601 143.993 39.6662 144.221 41.4864L144.492 44.6343C143.553 44.6102 143.03 44.4901 141.772 44.5081C140.628 44.5201 139.936 44.6943 139.166 44.6343L139.316 41.4864Z" fill="#F0D891"/>
<path fill-rule="evenodd" clip-rule="evenodd" d="M37.6217 33.635C37.6217 30.1387 37.6157 28.4506 37.6157 28.4506C38.3499 28.4506 39.036 28.5708 39.8545 28.5828C40.5346 28.5888 41.4314 28.4506 42.1596 28.4506L42.1717 31.6465C42.0814 33.0282 42.0814 34.3258 42.0814 36.134V40.9699C42.0814 42.9103 42.0393 43.0004 41.5217 43.3008C38.7471 44.7665 34.4439 45.2291 31.9282 45.2411C27.8175 45.2651 21.4499 44.5262 17.1226 40.4052C14.5949 37.9963 11.9768 33.6109 11.9708 28.3245C11.9588 21.4161 15.3833 16.5321 19.2351 14.1292C23.1291 11.7022 27.9559 11.4019 31.2842 11.4019C34.0106 11.4019 37.2907 11.9665 38.1092 12.1408C39.018 12.351 40.5286 12.5192 41.618 12.5613C42.0513 12.6093 42.1356 12.7835 42.1356 12.9517C42.1356 13.5585 41.8707 13.2581 41.8286 17.5954C41.8226 18.07 41.3832 17.8838 40.8235 17.3431C40.8235 17.3431 40.2457 16.9106 39.8365 16.5381C38.374 15.2285 35.437 13.2101 29.8518 13.2101C27.1254 13.2101 24.2004 13.4624 21.1189 15.8473C18.5972 17.8117 16.7555 21.7585 16.7555 26.8106C16.7555 32.8961 19.8189 37.2934 21.3356 38.7712C24.7541 42.0933 28.1786 43.1085 32.2291 43.2227C33.7819 43.2647 35.7198 43.0364 36.743 42.4838C37.3027 42.1714 37.6096 41.7028 37.6096 40.9699V33.635H37.6217Z" fill="#F0D891"/>
<path fill-rule="evenodd" clip-rule="evenodd" d="M180.658 12.0086C180.94 12.0447 182.012 12.1348 182.535 12.1348C182.794 12.1348 182.854 12.0927 184.112 12.0927L182.06 17.187C181.578 18.4004 179.346 23.5427 177.004 28.8772C174.254 35.1368 172.346 39.8466 171.353 41.9672C170.137 44.5503 169.872 45.2352 169.433 45.2412C168.909 45.2532 168.615 44.6344 167.79 42.5679L157.053 16.1116L155.392 12.0086C156.198 11.9726 157.625 12.1348 158.142 12.1348C158.582 12.1348 160.339 12.0086 160.863 12.0086C160.863 12.0086 161.976 15.595 162.626 17.2711L170.564 38.0985C173.074 32.3134 178.575 18.5266 179.532 15.4148C179.749 14.766 180.658 12.0086 180.658 12.0086Z" fill="#F0D891"/>
<path fill-rule="evenodd" clip-rule="evenodd" d="M207.982 42.796L204.22 32.968C204.124 32.7938 204.039 32.7097 203.823 32.7097H194.524C194.307 32.7097 194.181 32.8358 194.097 33.0581L191.563 39.9065C191.172 40.9938 189.884 44.6583 189.884 44.6583C189.884 44.6583 189.011 44.6162 188.53 44.6162C188.06 44.6162 187.26 44.7003 186.754 44.6583L188.626 39.9065L198.815 13.1558C199.339 11.7321 199.706 11.4678 199.965 11.4678C200.224 11.4678 200.627 11.7741 201.139 13.1198C201.789 14.7598 208.644 32.4273 211.25 39.0054L213.38 44.6583C212.742 44.6583 211.593 44.6583 208.601 44.5681L207.982 42.796ZM203.179 30.7693C203.389 30.7693 203.389 30.6372 203.353 30.4689L199.339 18.8448C199.17 18.5084 199.044 18.5084 198.851 18.8448L194.976 30.4689C194.891 30.6852 194.976 30.7693 195.102 30.7693H203.179Z" fill="#F0D891"/>
</svg>
