<svg width="267" height="97" viewBox="0 0 267 97" fill="none" xmlns="http://www.w3.org/2000/svg">
<path d="M91.6311 68.2198C91.7443 65.9671 89.6843 64.3682 86.7748 64.3682H81.9399L81.8903 64.8586C82.584 64.8799 83.2919 64.9865 83.2636 65.6118C83.2495 65.9885 83.0796 66.5783 82.9876 66.9052L79.1295 79.0497C78.7614 80.2222 78.2658 80.1938 77.204 80.1938L77.1898 80.8192H84.8493C87.9712 80.8192 90.102 78.7583 90.102 76.4275C90.102 74.3098 88.4667 72.9383 87.5818 72.6541L87.5394 72.5972C89.6702 72.3556 91.5178 70.5933 91.6311 68.2198ZM87.9287 75.7524C87.9287 78.602 86.5412 80.1512 83.2778 80.1512L81.0479 80.0019L83.292 72.917L84.8918 72.9881C85.89 73.052 87.9287 73.3505 87.9287 75.7524ZM84.8777 72.3698C84.6228 72.3698 83.9715 72.3983 83.5326 72.377L85.444 66.0524C85.7201 65.157 86.0952 64.887 86.9023 64.887C88.7782 64.887 89.4507 65.889 89.4507 67.7011C89.4507 70.4014 88.6225 72.3698 84.8777 72.3698ZM93.7689 76.3635C94.8095 75.8448 95.7864 75.39 97.0819 74.587C98.6322 73.6205 99.4817 72.5617 99.4817 71.5029C99.4817 70.7496 98.7313 70.0461 97.6907 70.0461C94.7317 70.0461 91.2559 76.0509 91.2559 78.7015C91.2559 80.0161 92.0841 80.9968 93.3513 80.9968C94.852 80.9968 96.2749 79.5898 97.4359 77.799L97.0677 77.6C95.7935 79.4121 95.0998 80.1227 93.7618 80.1227C92.9548 80.1227 93.1672 79.6324 93.1672 79.0213C93.1672 78.4101 93.4504 77.2305 93.7689 76.3635ZM97.5916 70.7212C98.0659 70.6501 98.25 71.0054 98.1933 71.4389C97.9739 72.9881 96.3174 74.523 94.1158 75.4966C95.6165 71.9932 96.5368 70.8775 97.5916 70.7212ZM103.127 77.4082C102.25 78.6091 101.45 79.3837 101.082 79.3837C100.898 79.3837 100.827 79.4832 100.827 79.1989C100.827 78.9644 100.855 78.6873 101.407 77.3016L106.83 64.084L103.58 64.2261L103.51 64.7449C104.203 64.7449 104.402 64.8515 104.593 65.0433C104.692 65.1428 104.572 65.6402 104.387 66.1093L99.2976 78.3462C98.9508 79.2131 98.8021 79.9522 98.8021 80.2293C98.8021 80.5136 99.0003 81.011 99.3684 81.011C100.154 81.011 102.009 79.739 103.439 77.7208L103.127 77.4082ZM114.065 71.5526C114.319 71.5526 114.73 71.2257 114.73 70.9486C114.73 70.643 114.447 70.2309 113.845 70.2309C113.222 70.2309 112.472 70.5151 111.941 71.0126C111.594 70.4725 111.006 70.1882 110.079 70.1882C107.141 70.1882 105.57 72.5972 105.57 74.4804C105.57 75.8874 105.881 76.9534 106.532 77.3726C105.442 78.0051 104.833 78.4599 104.833 79.3339C104.833 80.0375 105.06 80.4923 105.761 80.7268V80.7694C103.821 81.3379 102.618 82.1054 102.618 83.3063C102.618 84.5997 104.586 85.7722 107.29 85.7722C109.768 85.7722 112.323 84.486 112.323 82.6952C112.323 81.7074 111.53 80.9115 110.674 80.4852C109.52 79.9167 108.146 79.7106 107.035 79.27C106.178 78.9147 106.122 78.9147 106.122 78.4883C106.122 77.998 106.469 77.863 107.028 77.6C107.212 77.6711 107.637 77.7279 107.984 77.7279C110.645 77.7279 112.479 74.5017 112.479 72.4764C112.479 72.0998 112.514 71.6379 112.415 71.3679C112.62 71.1831 112.606 71.0552 112.868 71.0268C113.144 70.9912 113.158 71.1334 113.392 71.2684C113.534 71.3892 113.788 71.5526 114.065 71.5526ZM106.462 81.0039C107.106 81.1958 108.684 81.5369 109.513 81.8709C110.575 82.2972 111.226 82.5033 111.134 83.3205C111.013 84.3723 109.612 85.1539 107.339 85.1539C105.839 85.1539 104.034 84.8697 104.034 83.2921C104.034 82.0201 104.749 81.544 106.462 81.0039ZM111.176 71.8369C111.098 73.2368 109.76 77.0671 107.842 77.0671C106.985 77.0671 106.886 76.3991 106.886 75.4113C106.886 73.8124 108.154 70.6146 110.164 70.6146C110.95 70.6146 111.212 71.0623 111.176 71.8369ZM118.51 66.4717C119.041 66.4717 119.593 65.7895 119.593 65.2494C119.593 64.7093 119.133 64.1195 118.369 64.155C117.838 64.1764 117.328 64.6525 117.328 65.1641C117.335 66.1377 117.76 66.4717 118.51 66.4717ZM118.638 70.9202C118.638 70.5649 118.185 70.2024 117.816 70.2024C116.613 70.2024 115.041 71.7161 113.909 73.3079L114.192 73.6205C114.652 73.0094 115.919 71.4602 116.45 71.4602C116.563 71.4602 116.634 71.5526 116.634 71.7658C116.634 72.2348 116.047 73.4216 115.233 75.2052C113.916 78.1117 113.265 78.8791 113.265 80.2507C113.265 80.7907 113.527 81.0394 113.873 81.0394C115.332 81.0394 116.924 79.0497 117.76 77.9482L117.448 77.6924C116.294 79.1989 115.834 79.4761 115.353 79.6182C115.176 79.675 115.077 79.4548 115.077 79.2629C115.077 78.8436 115.813 77.5645 116.486 76.1575C117.71 73.5068 118.638 71.6237 118.638 70.9202ZM126.021 79.4903C125.887 79.4903 125.858 79.3766 125.858 79.2345C125.858 78.9502 125.929 78.7797 126.46 77.4863L129.412 70.4298L127.727 70.4796C127.309 71.6095 126.587 72.9881 125.872 74.253C124.188 77.195 122.262 79.739 121.2 79.739C120.995 79.739 120.889 79.6253 120.889 79.3908C120.889 78.7299 121.236 78.0264 122.34 75.6032C123.614 72.8246 124.287 71.446 124.287 70.8846C124.287 70.4867 123.848 70.0674 123.409 70.0674C122.418 70.0674 120.882 71.6237 119.749 73.0378L120.018 73.2368C120.967 72.0643 121.866 71.3679 122.234 71.3679C122.418 71.3679 122.446 71.4531 122.446 71.6166C122.446 71.9008 121.83 73.0378 120.79 75.3189C119.799 77.4792 119.013 78.9786 119.013 79.6893C119.013 80.3928 119.487 81.2242 120.103 81.1105C121.887 80.7765 122.927 80.2578 125.072 76.6549L125.009 76.9463C124.11 79.2629 124.088 79.6893 124.088 80.208C124.088 80.677 124.336 81.0537 124.987 81.0537C125.61 81.0537 127.097 79.8527 128.598 77.5005L128.3 77.1808C127.104 78.9573 126.481 79.4903 126.021 79.4903ZM144.462 71.3039C144.462 70.6004 144.03 70.174 143.45 70.174C141.51 70.174 140.384 71.6166 138.763 73.9474L138.678 73.9616C139.188 72.8104 139.344 72.1496 139.287 71.0907C139.259 70.5791 138.919 70.174 138.268 70.174C136.583 70.174 135.061 71.8156 133.645 73.9119L133.603 73.8835C135.033 70.6004 134.367 70.1669 133.574 70.1669C132.534 70.1669 131.274 71.446 129.957 73.5139L130.219 73.8266C131.281 72.249 132.095 71.2542 132.555 71.2542C132.789 71.2542 132.753 71.6734 132.704 71.8511C132.569 72.3485 132.038 73.5708 131.09 75.8306C130.283 77.7564 129.44 79.874 129.051 80.7481L130.601 80.7339C130.969 79.7248 131.854 77.9411 132.59 76.5981C134.233 73.6561 136.109 71.3465 137.128 71.3465C137.475 71.3465 137.503 71.5668 137.503 71.8013C137.503 72.5546 136.951 73.9048 136.052 76.0224L134.07 80.7694L135.62 80.7765C136.179 79.5045 136.972 77.9482 137.645 76.7544C139.471 73.5068 141.213 71.4389 142.324 71.4389C142.65 71.4389 142.692 71.6237 142.692 71.9577C142.692 72.6399 142.246 73.3434 140.972 75.9798C139.705 78.6375 139.252 79.5542 139.252 80.1654C139.252 80.6628 139.804 81.1389 140.08 81.1389C140.958 81.1389 142.713 79.6679 143.825 78.0904L143.393 77.7706C142.565 78.9218 141.878 79.3837 141.51 79.3837C141.397 79.3837 141.298 79.3268 141.298 79.1208C141.298 78.6233 141.46 78.332 142.706 75.7666C143.577 73.983 144.462 72.5049 144.462 71.3039ZM154.776 79.739C154.776 79.4832 154.847 79.1421 154.939 78.9076L159.781 64.8657L159.632 64.4535C158.195 65.3915 156.348 66.3082 154.776 66.9904L155.158 67.3742L157.133 66.8057L153.049 79.0213C152.61 80.3146 152.256 80.272 150.96 80.3004V80.7481H156.284L156.227 80.2791C154.932 80.2578 154.776 80.1441 154.776 79.739ZM167.469 64.7235C163.837 64.7235 161.083 69.3639 161.083 71.7161C161.083 73.7342 161.791 74.9068 163.497 75.2194C164.736 75.4468 165.642 75.1626 165.954 74.7789L165.918 74.8286C163.986 77.7422 162.174 78.8152 159.477 80.4852L159.724 80.9186C165.876 79.2984 170.123 73.6774 170.123 68.6391C170.123 66.4148 169.408 64.7235 167.469 64.7235ZM164.488 74.6438C163.54 74.6438 162.889 73.9687 162.889 72.2704C162.889 69.0939 165.664 65.2991 167.511 65.2991C168.481 65.2991 168.686 65.8037 168.715 67.2747C168.743 69.3639 166.994 74.6438 164.488 74.6438ZM177.245 64.7235C174.725 64.7235 172.849 66.3793 171.695 68.1914L172.049 68.497C173.16 66.6849 174.817 65.6545 176.339 65.6545C177.634 65.6545 178.25 66.1803 178.25 67.5234C178.25 68.838 177.825 69.8258 176.509 71.1902C174.888 72.8886 172.983 74.2885 171.433 76.0509C169.932 77.7635 169.154 79.1279 168.644 80.7978L176.261 80.812L177.776 77.664L177.224 77.5503C176.601 78.9857 176.303 78.8863 174.944 78.8863L170.265 78.8934C170.562 78.0193 170.994 77.3371 171.992 76.2356C173.889 74.0967 176.19 73.2084 178.066 71.4674C179.312 70.3161 180.204 68.8309 180.204 67.3955C180.204 65.5692 178.908 64.7235 177.245 64.7235ZM186.518 70.508C185.549 70.508 184.897 70.6644 184.31 71.2257L184.345 71.1049C185.846 68.2838 188.345 66.5143 191.028 65.292L190.61 64.9083C184.204 66.8341 180.077 71.8511 180.077 77.1168C180.077 78.9715 181.018 80.9826 183.106 80.9826C187.064 80.9826 189.322 75.6387 189.322 73.7556C189.315 71.4247 188.083 70.508 186.518 70.508ZM183.064 80.3928C182.144 80.4709 181.584 79.9877 181.584 78.4101C181.584 76.4346 182.873 71.1476 185.803 71.1476C187.099 71.1476 187.304 72.0074 187.304 73.1586C187.311 75.39 185.372 80.2009 183.064 80.3928Z" fill="black"/>
<path fill-rule="evenodd" clip-rule="evenodd" d="M82.3362 13.5232C93.776 13.5232 102.766 20.7715 102.766 32.6674C102.766 44.1084 94.2927 53.5597 82.0318 53.5597C68.1003 53.5597 61.9557 42.6729 61.9557 33.4917C61.9557 25.22 68.2985 13.5232 82.3362 13.5232ZM83.4052 51.2715C87.9853 51.2715 96.9403 48.3579 96.9474 34.1099C96.9544 23.0953 90.017 15.6124 81.9752 15.6124C73.4874 15.6124 67.626 21.2761 67.6189 32.0562C67.6048 43.1348 74.2449 51.2715 83.4052 51.2715Z" fill="black"/>
<path fill-rule="evenodd" clip-rule="evenodd" d="M115.551 49.0898C115.806 46.9366 115.806 42.9073 115.806 38.0112V29.0289C115.806 21.0557 115.848 19.6273 115.707 17.9929L115.686 14.3687C116.294 14.3687 122.255 14.2195 125.306 14.2195C130.346 14.2195 140.08 13.7576 146.125 20.0395C148.674 22.6972 151.067 26.9325 151.067 33.0155C151.067 39.4466 148.426 44.3997 145.58 47.4127C143.393 49.7151 138.381 53.2824 129.73 53.2824C125.363 53.2824 115.955 52.6713 115.445 52.6713L115.551 49.0898ZM121.066 34.5433C121.066 39.9512 121.122 44.6555 121.172 45.6148C121.221 46.8939 121.519 48.5923 121.929 49.1608C122.595 50.1344 123.883 51.2003 129.886 51.2003C134.622 51.2003 138.388 49.8146 141.383 46.8016C144.03 44.2007 145.46 39.2974 145.46 34.6002C145.46 28.1122 142.664 23.9266 140.583 21.7308C135.79 16.6712 130.601 16.3016 124.549 16.3016C123.536 16.3016 122.142 16.458 121.731 16.6569C121.278 16.863 121.129 17.1331 121.129 17.6731C121.073 19.4142 121.073 24.2819 121.073 28.2117V34.5433H121.066Z" fill="black"/>
<path fill-rule="evenodd" clip-rule="evenodd" d="M163.866 49.0756C164.12 46.9224 164.12 42.8931 164.12 37.9898V29.0076C164.12 21.0344 164.106 19.6131 164.014 17.9716L163.703 14.1982C164.418 14.1982 165.699 14.3474 166.754 14.3545C167.511 14.3616 168.955 14.1556 169.564 14.1982L169.479 17.9716C169.38 19.606 169.38 21.0344 169.38 29.0076V37.9898C169.38 42.8931 169.366 46.9224 169.635 49.0756L169.953 52.7992C168.849 52.7708 168.233 52.6287 166.754 52.65C165.409 52.6642 164.595 52.8703 163.689 52.7992L163.866 49.0756Z" fill="black"/>
<path fill-rule="evenodd" clip-rule="evenodd" d="M44.251 39.7878C44.251 35.652 44.2439 33.6551 44.2439 33.6551C45.1076 33.6551 45.9146 33.7973 46.8773 33.8115C47.6773 33.8186 48.7321 33.6551 49.5886 33.6551L49.6028 37.4357C49.4966 39.0701 49.4966 40.605 49.4966 42.744V48.4645C49.4966 50.7598 49.447 50.8664 48.8382 51.2217C45.5748 52.9557 40.5133 53.5028 37.5543 53.517C32.7193 53.5455 25.2297 52.6714 20.1398 47.7965C17.1666 44.9469 14.0873 39.7594 14.0802 33.5059C14.066 25.3338 18.094 19.5564 22.6246 16.7139C27.2047 13.843 32.8821 13.4877 36.7968 13.4877C40.0036 13.4877 43.8617 14.1557 44.8244 14.3617C45.8934 14.6105 47.6702 14.8094 48.9515 14.8592C49.4612 14.916 49.5603 15.1221 49.5603 15.3211C49.5603 16.0388 49.2488 15.6835 49.1993 20.8142C49.1922 21.3756 48.6754 21.1553 48.0171 20.5157C48.0171 20.5157 47.3375 20.0041 46.8561 19.5635C45.1359 18.0143 41.6813 15.6266 35.112 15.6266C31.9052 15.6266 28.4648 15.9251 24.8403 18.7463C21.8742 21.07 19.708 25.7388 19.708 31.7151C19.708 38.9138 23.3112 44.1155 25.0952 45.8636C29.116 49.7934 33.144 50.9943 37.9082 51.1294C39.7346 51.1791 42.0141 50.9091 43.2175 50.2553C43.8758 49.8858 44.2369 49.3315 44.2369 48.4645V39.7878H44.251Z" fill="black"/>
<path fill-rule="evenodd" clip-rule="evenodd" d="M212.491 14.2054C212.824 14.248 214.084 14.3546 214.7 14.3546C215.004 14.3546 215.075 14.3049 216.555 14.3049L214.141 20.331C213.575 21.7664 210.948 27.8494 208.194 34.1597C204.959 41.5644 202.715 47.1357 201.547 49.6442C200.117 52.6998 199.806 53.5099 199.289 53.517C198.673 53.5313 198.326 52.7993 197.356 50.3548L184.727 19.059L182.774 14.2054C183.722 14.1628 185.4 14.3546 186.009 14.3546C186.526 14.3546 188.593 14.2054 189.208 14.2054C189.208 14.2054 190.518 18.4478 191.283 20.4305L200.62 45.0677C203.572 38.2244 210.042 21.9157 211.168 18.2346C211.422 17.4672 212.491 14.2054 212.491 14.2054Z" fill="black"/>
<path fill-rule="evenodd" clip-rule="evenodd" d="M244.63 50.6248L240.206 38.999C240.093 38.7929 239.993 38.6934 239.739 38.6934H228.802C228.547 38.6934 228.398 38.8426 228.299 39.1056L225.319 47.2067C224.859 48.4929 223.344 52.8277 223.344 52.8277C223.344 52.8277 222.317 52.778 221.751 52.778C221.199 52.778 220.257 52.8774 219.662 52.8277L221.864 47.2067L233.849 15.5626C234.465 13.8785 234.897 13.5658 235.201 13.5658C235.505 13.5658 235.98 13.9282 236.581 15.52C237.346 17.46 245.409 38.3594 248.474 46.1407L250.98 52.8277C250.23 52.8277 248.878 52.8277 245.359 52.7211L244.63 50.6248ZM238.981 36.3981C239.229 36.3981 239.229 36.2418 239.186 36.0428L234.465 22.2922C234.267 21.8943 234.118 21.8943 233.891 22.2922L229.332 36.0428C229.233 36.2986 229.332 36.3981 229.481 36.3981H238.981Z" fill="black"/>
</svg>
