<svg width="24" height="24" viewBox="0 0 24 24" fill="none" xmlns="http://www.w3.org/2000/svg">
<path d="M8 12V8C8 6.93913 8.42143 5.92172 9.17157 5.17157C9.92172 4.42143 10.9391 4 12 4C13.0609 4 14.0783 4.42143 14.8284 5.17157C15.5786 5.92172 16 6.93913 16 8V12" stroke="black" stroke-width="2" stroke-linecap="round"/>
<path d="M3.69412 12.668C3.83912 10.927 3.91212 10.057 4.48612 9.528C5.06012 9 5.93412 9 7.68112 9H16.3201C18.0661 9 18.9401 9 19.5141 9.528C20.0881 10.056 20.1611 10.927 20.3061 12.668L20.8201 18.834C20.9041 19.847 20.9461 20.354 20.6501 20.677C20.3521 21 19.8441 21 18.8261 21H5.17412C4.15712 21 3.64812 21 3.35112 20.677C3.05412 20.354 3.09612 19.847 3.18112 18.834L3.69412 12.668Z" stroke="black" stroke-width="2"/>
</svg>
