<svg width="38" height="41" viewBox="0 0 38 41" fill="none" xmlns="http://www.w3.org/2000/svg">
<path d="M11.02 0H26.98C33.06 0 38 5.25326 38 11.7188V28.6909C38 31.7989 36.839 34.7796 34.7723 36.9773C32.7057 39.1751 29.9027 40.4097 26.98 40.4097H11.02C4.94 40.4097 0 35.1564 0 28.6909V11.7188C0 8.61079 1.16103 5.63007 3.22768 3.43236C5.29433 1.23466 8.09731 0 11.02 0ZM10.64 4.04097C8.82592 4.04097 7.08614 4.80731 5.80339 6.1714C4.52064 7.53549 3.8 9.3856 3.8 11.3147V29.095C3.8 33.1158 6.859 36.3687 10.64 36.3687H27.36C29.1741 36.3687 30.9139 35.6024 32.1966 34.2383C33.4794 32.8742 34.2 31.0241 34.2 29.095V11.3147C34.2 7.29395 31.141 4.04097 27.36 4.04097H10.64ZM28.975 7.0717C29.6049 7.0717 30.209 7.33779 30.6544 7.81143C31.0998 8.28508 31.35 8.92747 31.35 9.59731C31.35 10.2671 31.0998 10.9095 30.6544 11.3832C30.209 11.8568 29.6049 12.1229 28.975 12.1229C28.3451 12.1229 27.741 11.8568 27.2956 11.3832C26.8502 10.9095 26.6 10.2671 26.6 9.59731C26.6 8.92747 26.8502 8.28508 27.2956 7.81143C27.741 7.33779 28.3451 7.0717 28.975 7.0717ZM19 10.1024C21.5196 10.1024 23.9359 11.1668 25.7175 13.0614C27.4991 14.9559 28.5 17.5255 28.5 20.2049C28.5 22.8842 27.4991 25.4538 25.7175 27.3483C23.9359 29.2429 21.5196 30.3073 19 30.3073C16.4804 30.3073 14.0641 29.2429 12.2825 27.3483C10.5009 25.4538 9.5 22.8842 9.5 20.2049C9.5 17.5255 10.5009 14.9559 12.2825 13.0614C14.0641 11.1668 16.4804 10.1024 19 10.1024ZM19 14.1434C17.4883 14.1434 16.0384 14.782 14.9695 15.9188C13.9005 17.0555 13.3 18.5973 13.3 20.2049C13.3 21.8125 13.9005 23.3542 14.9695 24.491C16.0384 25.6277 17.4883 26.2663 19 26.2663C20.5117 26.2663 21.9616 25.6277 23.0305 24.491C24.0995 23.3542 24.7 21.8125 24.7 20.2049C24.7 18.5973 24.0995 17.0555 23.0305 15.9188C21.9616 14.782 20.5117 14.1434 19 14.1434Z" fill="white"/>
</svg>
