<svg width="38" height="38" viewBox="0 0 38 38" fill="none" xmlns="http://www.w3.org/2000/svg">
<g clip-path="url(#clip0_102_715)">
<path d="M35.0312 0H2.96875C1.32842 0 0 1.33 0 2.96875V35.0312C0 36.6716 1.33 38 2.96875 38H35.0312C36.6716 38 38 36.67 38 35.0312V2.96875C38 1.32842 36.67 0 35.0312 0ZM19 29.6875C18.0627 29.6875 17.1486 29.6242 16.2577 29.4975C15.3678 30.1245 10.2204 33.7393 9.73433 33.8073C9.73433 33.8073 9.53642 33.8849 9.367 33.7852C9.19758 33.6854 9.22767 33.4226 9.22767 33.4226C9.27833 33.0742 10.5624 28.6441 10.7983 27.8287C6.45208 25.6753 3.5625 21.8611 3.5625 17.5164C3.5625 10.7936 10.4738 5.34375 19 5.34375C27.5263 5.34375 34.4375 10.7936 34.4375 17.5164C34.4375 24.2393 27.5263 29.6875 19 29.6875ZM12.7458 15.6227H11.3557V20.9142C11.3557 21.3829 10.9567 21.7645 10.4643 21.7645C9.97183 21.7645 9.57442 21.3845 9.57442 20.9142V15.6227H8.18425C7.9642 15.6065 7.75844 15.5076 7.60827 15.3459C7.4581 15.1843 7.37464 14.9718 7.37464 14.7511C7.37464 14.5305 7.4581 14.318 7.60827 14.1563C7.75844 13.9946 7.9642 13.8958 8.18425 13.8795H12.7443C12.9643 13.8958 13.1701 13.9946 13.3202 14.1563C13.4704 14.318 13.5539 14.5305 13.5539 14.7511C13.5539 14.9718 13.4704 15.1843 13.3202 15.3459C13.1701 15.5076 12.9643 15.6065 12.7443 15.6227M30.1403 20.3047C30.2113 20.3979 30.2631 20.5042 30.2927 20.6175C30.3223 20.7308 30.3292 20.8489 30.3129 20.9649C30.2966 21.0806 30.2575 21.1919 30.198 21.2924C30.1385 21.393 30.0597 21.4808 29.9662 21.5508C29.8122 21.6676 29.6243 21.731 29.431 21.7313C29.2928 21.7317 29.1564 21.6999 29.0327 21.6384C28.909 21.5768 28.8014 21.4871 28.7185 21.3766L26.6301 18.6105L26.3213 18.9193V20.862C26.3209 21.098 26.2271 21.3243 26.0603 21.4913C25.8936 21.6583 25.6675 21.7526 25.4315 21.7534C25.1951 21.7534 24.9683 21.6595 24.8012 21.4923C24.634 21.3252 24.5401 21.0984 24.5401 20.862V14.7693C24.5498 14.5396 24.6478 14.3225 24.8138 14.1634C24.9798 14.0043 25.2008 13.9155 25.4307 13.9155C25.6606 13.9155 25.8816 14.0043 26.0476 14.1634C26.2136 14.3225 26.3116 14.5396 26.3213 14.7693V16.6852L28.8072 14.1993C28.9385 14.0704 29.1155 13.9987 29.2996 13.9998C29.5212 13.9998 29.7461 14.0964 29.9139 14.2642C30.0661 14.4145 30.1589 14.6147 30.1752 14.8279C30.1832 14.9272 30.1698 15.0271 30.1359 15.1208C30.1021 15.2144 30.0485 15.2998 29.9788 15.371L27.949 17.3993L30.1403 20.3047ZM16.9195 14.7598C16.7691 14.3323 16.3131 13.8922 15.732 13.8795C15.1525 13.8922 14.6965 14.3323 14.5461 14.7583L12.4165 20.3648C12.1458 21.204 12.3817 21.5175 12.6271 21.6315C12.8052 21.7103 12.9976 21.7518 13.1923 21.7534C13.5644 21.7534 13.8478 21.603 13.9333 21.3608L14.3751 20.2049H17.0905L17.5322 21.3608C17.6178 21.603 17.9012 21.7534 18.2733 21.7534C18.4681 21.7513 18.6605 21.7093 18.8385 21.6299C19.0839 21.5175 19.3198 21.2056 19.0491 20.3633L16.9195 14.7598ZM14.8438 18.6279L15.7336 16.1009L16.6218 18.6279H14.8438ZM24.1933 20.8177C24.1875 21.0389 24.0946 21.2488 23.9348 21.4018C23.7749 21.5548 23.5611 21.6385 23.3399 21.6347H20.4836C20.2621 21.6389 20.0479 21.5554 19.8877 21.4024C19.7275 21.2493 19.6344 21.0391 19.6286 20.8177V14.7693C19.6286 14.2785 20.0371 13.8795 20.539 13.8795C21.0409 13.8795 21.4478 14.2785 21.4478 14.7693V20.0023H23.3399C23.8102 20.0023 24.1949 20.368 24.1949 20.8177" fill="white"/>
</g>
<defs>
<clipPath id="clip0_102_715">
<rect width="38" height="38" fill="white"/>
</clipPath>
</defs>
</svg>
