<svg width="29" height="32" viewBox="0 0 29 32" fill="none" xmlns="http://www.w3.org/2000/svg">
<path fill-rule="evenodd" clip-rule="evenodd" d="M10.27 0.544922C8.63218 0.545059 7.01817 0.929028 5.5626 1.66479C4.10704 2.40056 2.85211 3.46679 1.90254 4.77452C0.952959 6.08226 0.336263 7.59358 0.103899 9.18239C-0.128466 10.7712 0.0302401 12.3914 0.566775 13.9079C1.10331 15.4244 2.00212 16.7931 3.1882 17.9C4.37429 19.0068 5.81327 19.8196 7.38508 20.2705C8.95689 20.7215 10.616 20.7976 12.2239 20.4923C13.8318 20.1871 15.3419 19.5095 16.6282 18.5161L21.041 22.8407C21.2689 23.0564 21.5742 23.1757 21.891 23.1731C22.2078 23.1704 22.5109 23.0458 22.7349 22.8263C22.9589 22.6067 23.086 22.3097 23.0888 21.9992C23.0915 21.6887 22.9697 21.3896 22.7496 21.1663L18.3368 16.8416C19.5306 15.3574 20.2739 13.5738 20.4817 11.6948C20.6895 9.81594 20.3533 7.91766 19.5116 6.21726C18.6699 4.51686 17.3567 3.08304 15.7223 2.07989C14.088 1.07675 12.1984 0.544795 10.27 0.544922ZM2.41579 10.6105C2.41579 8.56904 3.24328 6.61124 4.71623 5.16773C6.18917 3.72423 8.18691 2.91328 10.27 2.91328C12.353 2.91328 14.3508 3.72423 15.8237 5.16773C17.2966 6.61124 18.1241 8.56904 18.1241 10.6105C18.1241 12.6519 17.2966 14.6097 15.8237 16.0532C14.3508 17.4967 12.353 18.3076 10.27 18.3076C8.18691 18.3076 6.18917 17.4967 4.71623 16.0532C3.24328 14.6097 2.41579 12.6519 2.41579 10.6105Z" fill="black"/>
</svg>
