<svg width="30" height="30" viewBox="0 0 30 30" fill="none" xmlns="http://www.w3.org/2000/svg">
<path d="M15 15C13.625 15 12.4479 14.5104 11.4688 13.5312C10.4896 12.5521 10 11.375 10 10C10 8.625 10.4896 7.44792 11.4688 6.46875C12.4479 5.48958 13.625 5 15 5C16.375 5 17.5521 5.48958 18.5312 6.46875C19.5104 7.44792 20 8.625 20 10C20 11.375 19.5104 12.5521 18.5312 13.5312C17.5521 14.5104 16.375 15 15 15ZM5 25V21.5C5 20.7917 5.1825 20.1408 5.5475 19.5475C5.9125 18.9542 6.39667 18.5008 7 18.1875C8.29167 17.5417 9.60417 17.0575 10.9375 16.735C12.2708 16.4125 13.625 16.2508 15 16.25C16.375 16.2492 17.7292 16.4108 19.0625 16.735C20.3958 17.0592 21.7083 17.5433 23 18.1875C23.6042 18.5 24.0887 18.9533 24.4538 19.5475C24.8188 20.1417 25.0008 20.7925 25 21.5V25H5ZM7.5 22.5H22.5V21.5C22.5 21.2708 22.4429 21.0625 22.3288 20.875C22.2146 20.6875 22.0633 20.5417 21.875 20.4375C20.75 19.875 19.6146 19.4533 18.4688 19.1725C17.3229 18.8917 16.1667 18.7508 15 18.75C13.8333 18.7492 12.6771 18.89 11.5313 19.1725C10.3854 19.455 9.25 19.8767 8.125 20.4375C7.9375 20.5417 7.78625 20.6875 7.67125 20.875C7.55625 21.0625 7.49917 21.2708 7.5 21.5V22.5ZM15 12.5C15.6875 12.5 16.2762 12.2554 16.7663 11.7663C17.2563 11.2771 17.5008 10.6883 17.5 10C17.4992 9.31167 17.2546 8.72333 16.7663 8.235C16.2779 7.74667 15.6892 7.50167 15 7.5C14.3108 7.49833 13.7225 7.74333 13.235 8.235C12.7475 8.72667 12.5025 9.315 12.5 10C12.4975 10.685 12.7425 11.2738 13.235 11.7663C13.7275 12.2587 14.3158 12.5033 15 12.5Z" fill="black"/>
</svg>
