<svg width="33" height="33" viewBox="0 0 33 33" fill="none" xmlns="http://www.w3.org/2000/svg">
<path d="M11.8772 27.5C13.0163 27.5 13.9397 26.5766 13.9397 25.4375C13.9397 24.2984 13.0163 23.375 11.8772 23.375C10.7381 23.375 9.81467 24.2984 9.81467 25.4375C9.81467 26.5766 10.7381 27.5 11.8772 27.5Z" fill="black"/>
<path d="M24.2522 27.5C25.3913 27.5 26.3147 26.5766 26.3147 25.4375C26.3147 24.2984 25.3913 23.375 24.2522 23.375C23.1131 23.375 22.1897 24.2984 22.1897 25.4375C22.1897 26.5766 23.1131 27.5 24.2522 27.5Z" fill="black"/>
<path d="M5.68967 6.875H8.43967L9.26467 11M9.26467 11L11.1897 20.625H24.9397L27.6897 11H9.26467Z" stroke="black" stroke-width="2" stroke-linecap="round" stroke-linejoin="round"/>
</svg>
