<svg width="45" height="45" viewBox="0 0 45 45" fill="none" xmlns="http://www.w3.org/2000/svg">
<g clip-path="url(#clip0_102_717)">
<path d="M22.5 7.5C24.1031 7.5 25.7475 7.54125 27.3412 7.60875L29.2238 7.69875L31.0256 7.80563L32.7131 7.92L34.2544 8.04C35.927 8.16802 37.5008 8.88178 38.6991 10.0557C39.8974 11.2296 40.6433 12.7885 40.8056 14.4581L40.8806 15.255L41.0213 16.9613C41.1525 18.7294 41.25 20.6569 41.25 22.5C41.25 24.3431 41.1525 26.2706 41.0213 28.0388L40.8806 29.745C40.8562 30.0188 40.8319 30.2831 40.8056 30.5419C40.6432 32.2118 39.8971 33.7709 38.6984 34.9449C37.4997 36.1188 35.9254 36.8324 34.2525 36.96L32.715 37.0781L31.0275 37.1944L29.2238 37.3013L27.3412 37.3913C25.7284 37.4613 24.1143 37.4976 22.5 37.5C20.8857 37.4976 19.2716 37.4613 17.6588 37.3913L15.7762 37.3013L13.9744 37.1944L12.2869 37.0781L10.7456 36.96C9.07303 36.832 7.49916 36.1182 6.30089 34.9443C5.10261 33.7704 4.3567 32.2115 4.19437 30.5419L4.11938 29.745L3.97875 28.0388C3.83538 26.1959 3.75908 24.3484 3.75 22.5C3.75 20.6569 3.8475 18.7294 3.97875 16.9613L4.11938 15.255C4.14375 14.9813 4.16812 14.7169 4.19437 14.4581C4.35664 12.7888 5.10228 11.2302 6.30017 10.0563C7.49806 8.88238 9.07149 8.16844 10.7438 8.04L12.2831 7.92L13.9706 7.80563L15.7744 7.69875L17.6569 7.60875C19.2703 7.53869 20.885 7.50243 22.5 7.5ZM22.5 11.25C20.9531 11.25 19.3612 11.2913 17.8125 11.355L15.9788 11.4431L14.2181 11.5463L12.5644 11.6588L11.0494 11.7769C10.2531 11.8334 9.50258 12.17 8.9308 12.727C8.35902 13.284 8.00292 14.0255 7.92563 14.82C7.70625 17.0869 7.5 19.9088 7.5 22.5C7.5 25.0913 7.70625 27.9131 7.92563 30.18C8.085 31.815 9.3825 33.0863 11.0494 33.2231L12.5644 33.3394L14.2181 33.4519L15.9788 33.5569L17.8125 33.645C19.3612 33.7088 20.9531 33.75 22.5 33.75C24.0469 33.75 25.6388 33.7088 27.1875 33.645L29.0212 33.5569L30.7819 33.4538L32.4356 33.3413L33.9506 33.2231C34.7469 33.1666 35.4974 32.83 36.0692 32.273C36.641 31.716 36.9971 30.9745 37.0744 30.18C37.2938 27.9131 37.5 25.0913 37.5 22.5C37.5 19.9088 37.2938 17.0869 37.0744 14.82C36.9971 14.0255 36.641 13.284 36.0692 12.727C35.4974 12.17 34.7469 11.8334 33.9506 11.7769L32.4356 11.6606L30.7819 11.5481L29.0212 11.4431L27.1875 11.355C25.6259 11.2878 24.0631 11.2528 22.5 11.25ZM18.75 17.9531C18.7499 17.7699 18.7945 17.5894 18.8801 17.4273C18.9656 17.2652 19.0894 17.1265 19.2408 17.0232C19.3921 16.9199 19.5665 16.8551 19.7485 16.8345C19.9306 16.8139 20.115 16.8381 20.2856 16.905L20.4375 16.98L28.3125 21.525C28.4693 21.6155 28.602 21.7425 28.6992 21.8952C28.7965 22.0479 28.8554 22.2218 28.8711 22.4022C28.8867 22.5826 28.8586 22.7641 28.7891 22.9313C28.7196 23.0984 28.6108 23.2464 28.4719 23.3625L28.3125 23.475L20.4375 28.0219C20.2788 28.1138 20.1001 28.1655 19.9168 28.1725C19.7336 28.1795 19.5514 28.1416 19.3861 28.0622C19.2208 27.9827 19.0775 27.864 18.9686 27.7164C18.8597 27.5689 18.7885 27.397 18.7612 27.2156L18.75 27.0469V17.9531Z" fill="white"/>
</g>
<defs>
<clipPath id="clip0_102_717">
<rect width="45" height="45" fill="white"/>
</clipPath>
</defs>
</svg>
